<svg width="487" height="379" viewBox="0 0 487 379" fill="none" xmlns="http://www.w3.org/2000/svg">
<rect y="34.9258" width="415.108" height="272.691" rx="20" fill="#6EB0F6"/>
<path d="M207.785 2.46313H69.8054C60.7285 2.46313 53.3701 9.82147 53.3701 18.8984V216.234C53.3701 225.311 60.7285 232.67 69.8054 232.67H207.785C216.862 232.67 224.22 225.311 224.22 216.234V18.8984C224.22 9.82147 216.862 2.46313 207.785 2.46313Z" fill="white" stroke="#372E46" stroke-width="2" stroke-miterlimit="10"/>
<path d="M140.759 235.02L137.989 228.802L201.887 213.313L222.133 183.987L227.287 181.502L237.942 200.325L232.946 250.208L209.762 256.832L173.881 267.32L163.945 265.664L152.905 258.488L140.759 235.02Z" fill="white"/>
<path d="M54.0918 14.11L221.846 14.2063" stroke="#372E46" stroke-width="2" stroke-miterlimit="10"/>
<path d="M71.5938 26.2987L128.576 26.058" stroke="#372E46" stroke-width="2" stroke-miterlimit="10"/>
<path d="M71.9951 35.5201L128.977 35.2794" stroke="#372E46" stroke-width="2" stroke-miterlimit="10"/>
<path d="M71.9951 46.3487L98.8659 46.1081" stroke="#372E46" stroke-width="2" stroke-miterlimit="10"/>
<path d="M154.212 100.896L211.194 100.655" stroke="#372E46" stroke-width="2" stroke-miterlimit="10"/>
<path d="M154.212 92.065L211.194 91.8243" stroke="#372E46" stroke-width="2" stroke-miterlimit="10"/>
<path d="M154.613 110.119L211.595 109.878" stroke="#372E46" stroke-width="2" stroke-miterlimit="10"/>
<path d="M154.613 120.946L181.484 120.706" stroke="#372E46" stroke-width="2" stroke-miterlimit="10"/>
<path d="M126.009 97.6969H62.5461C60.8007 97.6969 59.3857 99.1118 59.3857 100.857V173.144C59.3857 174.889 60.8007 176.304 62.5461 176.304H126.009C127.755 176.304 129.17 174.889 129.17 173.144V100.857C129.17 99.1118 127.755 97.6969 126.009 97.6969Z" stroke="#372E46" stroke-width="2" stroke-miterlimit="10"/>
<path d="M207.112 28.7157H151.493C148.689 28.7157 146.416 30.9889 146.416 33.7931V66.1504C146.416 68.9545 148.689 71.2277 151.493 71.2277H207.112C209.916 71.2277 212.189 68.9545 212.189 66.1504V33.7931C212.189 30.9889 209.916 28.7157 207.112 28.7157Z" fill="#372E46"/>
<path d="M130.109 90.4724H45.6145C42.8103 90.4724 40.5371 92.7456 40.5371 95.5498V164.002C40.5371 166.806 42.8103 169.08 45.6145 169.08H130.109C132.913 169.08 135.187 166.806 135.187 164.002V95.5498C135.187 92.7456 132.913 90.4724 130.109 90.4724Z" fill="#372E46"/>
<path d="M112.053 56.8303H77.5618C74.2393 56.8303 71.5459 59.5237 71.5459 62.8462C71.5459 66.1686 74.2393 68.862 77.5618 68.862H112.053C115.375 68.862 118.069 66.1686 118.069 62.8462C118.069 59.5237 115.375 56.8303 112.053 56.8303Z" fill="#372E46"/>
<path d="M85.5829 191.588H51.092C47.7696 191.588 45.0762 194.281 45.0762 197.603C45.0762 200.926 47.7696 203.619 51.092 203.619H85.5829C88.9054 203.619 91.5988 200.926 91.5988 197.603C91.5988 194.281 88.9054 191.588 85.5829 191.588Z" fill="#372E46"/>
<path d="M197.879 137.844H163.388C160.065 137.844 157.372 140.537 157.372 143.859C157.372 147.182 160.065 149.875 163.388 149.875H197.879C201.201 149.875 203.895 147.182 203.895 143.859C203.895 140.537 201.201 137.844 197.879 137.844Z" fill="#372E46"/>
<path d="M311.331 132.63L315.195 151.951L319.059 157.471L300.291 171.823L287.043 158.575C286.491 153.791 285.166 144.223 284.283 144.223C284.467 146.247 275.524 144.223 272.139 142.015C261.982 135.391 262.754 118.646 264.41 111.102L259.442 107.238L265.514 102.822L272.139 95.6461L287.043 82.95L302.499 80.19L309.675 82.95L316.851 86.814L321.267 92.3341L322.371 86.814L325.683 80.19L335.619 77.4299L343.899 80.19L348.315 86.814V93.4381L345.555 100.062L338.931 103.926H331.203L324.579 100.062L322.371 112.206L324.579 113.31L327.891 118.278L325.683 126.006L319.059 129.87H316.851L311.331 128.214V132.63Z" fill="white"/>
<path d="M291.825 318.562L286.79 297.31L404.199 272.545L443.967 373.473L266.645 377.117L274.388 358.896L291.825 318.562Z" fill="#372E46"/>
<path d="M254.637 244.938L255.362 247.113L343.851 244.938L384.483 215.789L385.712 206.624L387.196 198.125L389.807 186.299L392.584 176.409V175.771L384.036 171.053L376.422 167.022L371.045 164.051L364.99 161.108L359.075 158.306L353.642 156.439L346.992 153.864L343.851 152.76L338.05 151.373L333.551 150.666L329.051 150.411L321.411 150.242L316.546 151.095L314.822 151.806L313.947 155.554L312.277 158.591L308.966 162.203L305.491 164.201L302.345 164.912L297.994 165.405L293.534 164.529L290.444 162.617L287.174 159.941V158.651L274.719 162.022L258.134 167.671L247.661 171.57L234.182 177.551L224.368 182.177L217.49 186.299L208.106 190.039L199.826 196.111L217.49 218.192L221.994 224.438L226.473 233.531L229.009 239.63L231.814 247.777L233.247 253.7L232.643 256.298L241.827 251.102L254.637 244.938Z" fill="#FF6200"/>
<path d="M482.413 46.3592H464.943C462.679 46.3592 460.844 48.1943 460.844 50.458V127.284C460.844 129.548 462.679 131.383 464.943 131.383H482.413C484.676 131.383 486.511 129.548 486.511 127.284V50.458C486.511 48.1943 484.676 46.3592 482.413 46.3592Z" fill="white" stroke="#372E46" stroke-width="2" stroke-miterlimit="10"/>
<path d="M472.788 35.1306H393.555C391.291 35.1306 389.456 36.9657 389.456 39.2294V121.671C389.456 123.934 391.291 125.769 393.555 125.769H472.788C475.051 125.769 476.886 123.934 476.886 121.671V39.2294C476.886 36.9657 475.051 35.1306 472.788 35.1306Z" fill="white" stroke="#372E46" stroke-width="2" stroke-miterlimit="10"/>
<path d="M392.477 176.239C389.533 188.751 383.645 214.107 383.645 215.431L395.237 230.888L409.037 228.68L421.181 222.055L430.013 209.359L434.429 188.935L443.261 118.278L416.213 123.246L401.309 178.999L392.477 176.239Z" fill="white"/>
<path d="M409.141 1H262.193C256.036 1 251.044 5.99175 251.044 12.1494V44.3943C251.044 50.552 256.036 55.5437 262.193 55.5437H409.141C415.298 55.5437 420.29 50.552 420.29 44.3943V12.1494C420.29 5.99175 415.298 1 409.141 1Z" fill="white" stroke="#372E46" stroke-width="2" stroke-miterlimit="10"/>
<path d="M322.183 111.92C324.255 106.571 324.241 100.639 322.143 95.3004C320.045 89.9618 316.016 85.6069 310.857 83.1001C305.747 80.7273 300.005 80.0771 294.494 81.2472C289.009 82.4212 283.886 84.8972 279.559 88.4663C272.717 93.9848 267.639 101.621 259.73 106.762C260.834 108.552 262.445 109.973 264.359 110.845C263.797 116.324 263.244 121.874 264.134 127.305C265.024 132.735 267.567 138.125 272.067 141.293C274.191 142.733 276.609 143.68 279.146 144.066C281.683 144.452 284.274 144.266 286.73 143.523C291.646 141.95 295.805 138.609 298.4 134.147" stroke="#372E46" stroke-width="2" stroke-miterlimit="10"/>
<path d="M315.413 115.2C316.649 114.105 318.104 113.285 319.68 112.794C320.472 112.543 321.307 112.455 322.134 112.535C322.961 112.615 323.763 112.861 324.493 113.259C325.236 113.75 325.874 114.384 326.369 115.126C326.863 115.867 327.205 116.699 327.373 117.574C327.82 119.703 327.577 121.919 326.678 123.899C325.779 125.88 324.272 127.522 322.375 128.587C318.549 130.625 313.4 129.758 311.098 128.058C311.821 136.351 313.132 144.583 315.02 152.691" stroke="#372E46" stroke-width="2" stroke-miterlimit="10"/>
<path d="M284.572 144.133L287.291 159.173" stroke="#372E46" stroke-width="2" stroke-miterlimit="10"/>
<path d="M315.509 115.232C306.162 110.343 298.862 102.284 294.919 92.4997C293.555 89.0667 292.625 85.2165 293.788 81.7113" stroke="#372E46" stroke-width="2" stroke-miterlimit="10"/>
<path d="M295.28 81.6694C296.813 87.2419 299.873 92.2753 304.113 96.2024C308.353 100.129 313.606 102.794 319.28 103.896" stroke="#372E46" stroke-width="2" stroke-miterlimit="10"/>
<path d="M335.073 104.524C342.493 104.524 348.509 98.4653 348.509 90.992C348.509 83.5187 342.493 77.4603 335.073 77.4603C327.653 77.4603 321.638 83.5187 321.638 90.992C321.638 98.4653 327.653 104.524 335.073 104.524Z" stroke="#372E46" stroke-width="2" stroke-miterlimit="10"/>
<path d="M316.456 123.266C317.951 121.616 319.85 120.383 321.967 119.689" stroke="#372E46" stroke-width="2" stroke-miterlimit="10"/>
<path d="M285.564 102.813C285.847 101.569 285.376 100.401 284.512 100.204C283.648 100.008 282.719 100.857 282.435 102.101C282.152 103.345 282.623 104.513 283.487 104.709C284.351 104.906 285.281 104.057 285.564 102.813Z" fill="#372E46"/>
<path d="M274.233 123.738C274.819 124.711 275.543 125.595 276.383 126.361C276.806 126.735 277.303 127.015 277.843 127.181C278.383 127.347 278.951 127.395 279.511 127.323C280.69 127.013 281.711 126.275 282.375 125.254C283.988 123.099 284.883 120.493 284.934 117.802" stroke="#372E46" stroke-width="2" stroke-miterlimit="10"/>
<path d="M286.257 158.832C242.835 170.648 202.158 190.878 166.533 218.372" stroke="#372E46" stroke-width="2" stroke-miterlimit="10"/>
<path d="M199.42 196.149C216.122 210.99 227.82 230.637 232.908 252.393C233.221 253.749 233.43 255.377 232.435 256.34C231.44 257.302 229.531 256.949 228.537 255.89C227.628 254.727 227.046 253.343 226.852 251.88" stroke="#372E46" stroke-width="2" stroke-miterlimit="10"/>
<path d="M231.728 256.82C241.729 250.768 251.902 245.894 262.811 241.694" stroke="#372E46" stroke-width="2" stroke-miterlimit="10"/>
<path d="M227.356 253.799L226.777 251.878L232.301 250.195L232.854 251.878L233.117 254.535L232.854 255.614L232.038 256.508L230.828 256.719L229.197 256.219L228.224 255.219L227.356 253.799Z" fill="#372E46"/>
<path d="M254.958 245.431C256.257 249.401 257.589 253.452 260.059 256.821C262.53 260.19 266.364 262.837 270.359 262.861C272.501 275.039 275.435 287.064 279.142 298.86L425.022 268.171L370.478 197.497" fill="#FF6200"/>
<path d="M254.958 245.431C256.257 249.401 257.589 253.452 260.059 256.821C262.53 260.19 266.364 262.837 270.359 262.861C272.501 275.039 275.435 287.064 279.142 298.86L425.022 268.171L370.478 197.497" stroke="#372E46" stroke-width="2" stroke-miterlimit="10"/>
<path d="M315.718 151.337C325.343 149.204 335.49 150.351 344.963 153.15C354.436 155.95 363.339 160.369 372.163 164.765C379.093 168.254 386.015 171.783 392.769 175.906C388.723 188.865 385.961 202.191 384.523 215.691" stroke="#372E46" stroke-width="2" stroke-miterlimit="10"/>
<path d="M392.809 176.559L401.929 178.693" stroke="#372E46" stroke-width="2" stroke-miterlimit="10"/>
<path d="M401.504 181.754C407.014 157.202 413.239 132.825 420.001 109.331C418.841 99.6971 419.003 89.9495 420.482 80.3591C420.573 79.3277 420.888 78.3286 421.404 77.4314C421.674 76.9906 422.072 76.6434 422.546 76.4368C423.019 76.2302 423.545 76.1741 424.051 76.2763C425.455 76.6934 425.824 78.4741 425.952 79.934C426.416 84.324 426.566 88.7414 426.402 93.1528C431.792 83.736 437.543 74.1587 446.166 67.5734C447.445 66.4583 448.989 65.6905 450.649 65.3435C452.326 65.1189 454.243 65.8408 454.901 67.3969" stroke="#372E46" stroke-width="2" stroke-miterlimit="10"/>
<path d="M433.517 97.8315C435.522 91.567 439.18 85.9282 443.479 80.9872C447.778 76.0461 452.735 71.6425 457.66 67.2951C458.101 66.9101 458.639 66.493 459.2 66.6454C460.002 66.8619 460.083 67.9608 459.938 68.779C458.198 78.7493 448.588 85.8159 446.399 95.6979" stroke="#372E46" stroke-width="2" stroke-miterlimit="10"/>
<path d="M446.759 94.0575C451.599 87.5488 457.218 81.6575 463.491 76.5152C464.461 75.7131 465.713 74.911 466.884 75.3602C467.34 75.5933 467.712 75.9625 467.949 76.4166C468.186 76.8707 468.277 77.3873 468.207 77.8949C468.048 78.904 467.673 79.867 467.108 80.7183C460.626 92.1612 453.013 102.926 444.384 112.851L434.037 190.656C432.826 199.76 431.486 209.225 426.361 216.845C419.487 227.056 405.883 232.198 393.979 229.093" stroke="#372E46" stroke-width="2" stroke-miterlimit="10"/>
<path d="M232.274 250.243C215.975 255.015 199.724 259.94 183.393 264.584C177.778 266.189 171.931 267.745 166.26 266.502C156.747 264.408 150.723 255.224 146.143 246.625C134.329 224.48 125.175 201.016 118.871 176.721" stroke="#372E46" stroke-width="2" stroke-miterlimit="10"/>
<path d="M170.936 215.831L138.338 162.795" stroke="#372E46" stroke-width="2" stroke-miterlimit="10"/>
<path d="M119.504 177.51C113.471 166.243 108.303 154.533 104.047 142.481C103.582 141.174 103.245 139.401 104.465 138.687C105.82 137.885 107.36 139.393 108.202 140.733C111.804 146.46 115.421 152.179 117.491 156.173C113.457 148.467 110.792 140.119 109.614 131.5C109.458 130.73 109.458 129.936 109.614 129.166C109.698 128.772 109.894 128.412 110.179 128.127C110.464 127.842 110.825 127.646 111.218 127.562C112.462 127.386 113.376 128.661 113.97 129.776C117.772 136.883 121.582 143.997 125.873 152.034C122.054 144.418 119.465 136.245 118.205 127.819C118.044 126.76 117.972 125.517 118.758 124.795C119.155 124.496 119.638 124.334 120.134 124.334C120.63 124.334 121.113 124.496 121.51 124.795C122.29 125.411 122.919 126.199 123.346 127.097C127.603 134.552 131.174 142.378 134.014 150.478C133.867 146.609 134.106 142.734 134.728 138.912C134.937 137.604 135.53 135.992 136.87 135.984C138.209 135.976 138.811 137.524 139.076 138.792C140.809 147.2 140.735 155.881 138.859 164.259" fill="white"/>
<path d="M119.504 177.51C113.471 166.243 108.303 154.533 104.047 142.481C103.582 141.174 103.245 139.401 104.465 138.687C105.82 137.885 107.36 139.393 108.202 140.733C111.804 146.46 115.421 152.179 117.491 156.173C113.457 148.467 110.792 140.119 109.614 131.5C109.458 130.73 109.458 129.936 109.614 129.166C109.698 128.772 109.894 128.412 110.179 128.127C110.464 127.842 110.825 127.646 111.218 127.562C112.462 127.386 113.376 128.661 113.97 129.776C117.772 136.883 121.582 143.997 125.873 152.034C122.054 144.418 119.465 136.245 118.205 127.819C118.044 126.76 117.972 125.517 118.758 124.795C119.155 124.496 119.638 124.334 120.134 124.334C120.63 124.334 121.113 124.496 121.51 124.795C122.29 125.411 122.919 126.199 123.346 127.097C127.603 134.552 131.174 142.378 134.014 150.478C133.867 146.609 134.106 142.734 134.728 138.912C134.937 137.604 135.53 135.992 136.87 135.984C138.209 135.976 138.811 137.524 139.076 138.792C140.809 147.2 140.735 155.881 138.859 164.259" stroke="#372E46" stroke-width="2" stroke-miterlimit="10"/>
<path d="M121.775 179.956L119.429 174.956L131.283 166.868L131.839 178.043L121.775 179.956Z" fill="white"/>
<path d="M287.002 159.441C288.882 161.828 291.415 163.618 294.293 164.592C297.171 165.566 300.271 165.682 303.214 164.927C306.157 164.171 308.818 162.576 310.871 160.336C312.924 158.096 314.282 155.308 314.779 152.31" stroke="#372E46" stroke-width="2" stroke-miterlimit="10"/>
<path d="M298.697 172.407C302.741 172.472 306.714 171.341 310.116 169.154C313.519 166.968 316.199 163.824 317.82 160.119" stroke="white" stroke-width="2" stroke-miterlimit="10"/>
<path d="M262.498 94.6498C262.31 89.9798 263.725 85.3861 266.509 81.6315C269.287 77.9095 272.846 74.8405 276.936 72.6398C278.709 71.6451 280.947 70.7708 282.695 71.8376C283.294 72.2561 283.769 72.8272 284.073 73.4915C284.376 74.1559 284.496 74.8893 284.42 75.6156C284.238 77.0657 283.725 78.4545 282.92 79.6743C282.503 80.3721 281.845 81.1502 281.043 80.9737C280.741 80.8738 280.484 80.6716 280.316 80.4021C280.147 80.1326 280.078 79.8128 280.12 79.4978C280.218 78.866 280.481 78.2711 280.882 77.7733C284.164 73.1855 288.848 69.79 294.23 68.0998C296.636 67.2977 299.516 66.9207 301.633 68.3645C303.582 69.688 304.36 72.2708 304.112 74.613C303.726 76.9408 302.875 79.1669 301.609 81.1582" stroke="#372E46" stroke-width="2" stroke-miterlimit="10"/>
<path d="M292.834 285.122C329.56 275.51 366.779 267.893 404.328 262.301" stroke="white" stroke-width="2" stroke-miterlimit="10"/>
<path d="M286.946 298.323C288.686 305.045 290.435 311.766 291.758 318.817L266.363 377.66" stroke="#372E46" stroke-width="2" stroke-miterlimit="10"/>
<path d="M373.053 328.793C369.332 333.486 365.61 338.178 361.022 343.231L354.107 378.227" stroke="white" stroke-width="2" stroke-miterlimit="10"/>
<path d="M404.479 272.925C416.886 306.764 430.016 340.348 443.871 373.679" stroke="#372E46" stroke-width="2" stroke-miterlimit="10"/>
<path d="M265.706 19.8783L322.688 19.6377" stroke="#372E46" stroke-width="2" stroke-miterlimit="10"/>
<path d="M266.106 29.105L323.089 28.8644" stroke="#372E46" stroke-width="2" stroke-miterlimit="10"/>
<path d="M266.106 39.9381L292.977 39.6975" stroke="#372E46" stroke-width="2" stroke-miterlimit="10"/>
</svg>
